<svg xmlns="http://www.w3.org/2000/svg" xmlns:xlink="http://www.w3.org/1999/xlink" width="200" zoomAndPan="magnify" viewBox="0 0 150 74.999997" height="100" preserveAspectRatio="xMidYMid meet" version="1.0"><defs><filter x="0%" y="0%" width="100%" height="100%" id="8ea1ae0dc6"><feColorMatrix values="0 0 0 0 1 0 0 0 0 1 0 0 0 0 1 0 0 0 1 0" color-interpolation-filters="sRGB"/></filter><g/><mask id="6fd1171918"><g filter="url(#8ea1ae0dc6)"><rect x="-15" width="180" fill="#000000" y="-7.5" height="89.999996" fill-opacity="0.349"/></g></mask><clipPath id="560bf022a6"><path d="M 0 5 L 62 5 L 62 31 L 0 31 Z M 0 5 " clip-rule="nonzero"/></clipPath><clipPath id="fb077b86aa"><path d="M 2.742188 33.789062 L 0.0234375 6.925781 L 60.464844 0.808594 L 63.183594 27.671875 Z M 2.742188 33.789062 " clip-rule="nonzero"/></clipPath><clipPath id="156487d428"><path d="M 2.742188 33.789062 L 0.0234375 6.925781 L 60.464844 0.808594 L 63.183594 27.671875 Z M 2.742188 33.789062 " clip-rule="nonzero"/></clipPath><clipPath id="067cfa3250"><rect x="0" width="64" y="0" height="35"/></clipPath><clipPath id="ed76332bef"><path d="M 9 16 L 62.199219 16 L 62.199219 39 L 9 39 Z M 9 16 " clip-rule="nonzero"/></clipPath></defs><g mask="url(#6fd1171918)"><g transform="matrix(1, 0, 0, 1, 0, 19)"><g clip-path="url(#067cfa3250)"><g clip-path="url(#560bf022a6)"><g clip-path="url(#fb077b86aa)"><g clip-path="url(#156487d428)"><path fill="#ffffff" d="M 15.453125 14.820312 C 15.4375 14.851562 15.40625 14.871094 15.367188 14.878906 C 15.246094 14.90625 15.121094 14.925781 15 14.945312 C 13.644531 15.378906 12.367188 16.046875 11.003906 16.449219 C 8.820312 17.09375 6.308594 17.152344 4.089844 16.691406 C 3.347656 16.539062 2.605469 16.414062 1.871094 16.203125 C 1.753906 16.171875 1.542969 16.136719 1.359375 16.089844 C 1.207031 16.050781 1.074219 15.996094 1 15.925781 C 0.949219 15.882812 0.953125 15.839844 0.949219 15.808594 C 0.949219 15.761719 0.96875 15.730469 1.007812 15.699219 C 1.023438 15.6875 1.046875 15.671875 1.085938 15.667969 C 1.109375 15.667969 1.144531 15.667969 1.167969 15.664062 C 1.304688 15.65625 1.4375 15.648438 1.574219 15.640625 C 1.902344 15.625 2.238281 15.585938 2.5625 15.523438 C 3.507812 15.34375 4.484375 15.152344 5.394531 14.832031 C 7.324219 14.160156 9.441406 13.960938 11.46875 14.210938 C 12.402344 14.328125 13.261719 14.621094 14.160156 14.679688 L 14.167969 14.679688 C 15.1875 14.429688 16.222656 14.230469 17.269531 14.09375 C 18.253906 13.972656 19.242188 13.917969 20.238281 13.957031 C 20.597656 13.96875 20.953125 14 21.3125 14.039062 C 20.78125 13.804688 20.265625 13.554688 19.773438 13.289062 C 19.128906 12.941406 18.429688 12.609375 17.855469 12.148438 C 16.914062 11.394531 16.203125 10.484375 15.425781 9.582031 C 15.097656 9.195312 14.835938 8.753906 14.523438 8.359375 C 14.179688 7.921875 13.789062 7.511719 13.445312 7.070312 C 13.234375 6.796875 13.011719 6.539062 12.792969 6.273438 C 12.726562 6.191406 12.664062 6.117188 12.589844 6.042969 C 12.558594 6.015625 12.492188 5.976562 12.460938 5.949219 C 12.429688 5.917969 12.410156 5.886719 12.402344 5.867188 C 12.386719 5.820312 12.394531 5.78125 12.417969 5.746094 C 12.4375 5.71875 12.46875 5.683594 12.53125 5.671875 C 12.632812 5.648438 12.761719 5.679688 12.898438 5.734375 C 13.050781 5.800781 13.21875 5.902344 13.320312 5.953125 C 13.941406 6.226562 14.582031 6.460938 15.1875 6.761719 C 16.820312 7.578125 18.363281 8.554688 19.464844 10.050781 C 20.128906 10.941406 20.5625 11.90625 21.140625 12.726562 C 21.664062 13.464844 22.300781 14.085938 23.339844 14.40625 C 24.804688 14.78125 26.140625 15.351562 27.507812 16.015625 C 29.964844 17.207031 32.519531 18.722656 36.128906 19.945312 C 37.398438 20.378906 38.675781 20.691406 39.953125 20.898438 C 39.914062 20.882812 39.875 20.863281 39.835938 20.847656 C 38.660156 20.296875 37.078125 19.359375 36.230469 18.363281 C 35.234375 17.183594 34.382812 15.296875 33.523438 13.96875 C 33.175781 13.429688 32.757812 12.972656 32.308594 12.519531 C 32.210938 12.421875 32.046875 12.296875 31.910156 12.164062 C 31.800781 12.0625 31.714844 11.949219 31.667969 11.847656 C 31.640625 11.777344 31.660156 11.734375 31.671875 11.703125 C 31.695312 11.660156 31.734375 11.628906 31.804688 11.625 C 31.828125 11.625 31.859375 11.632812 31.894531 11.648438 C 31.933594 11.671875 32.003906 11.726562 32.046875 11.742188 C 32.160156 11.800781 32.269531 11.859375 32.382812 11.914062 C 32.722656 12.082031 33.082031 12.203125 33.429688 12.347656 C 33.566406 12.402344 33.703125 12.464844 33.832031 12.523438 C 33.859375 12.503906 33.894531 12.5 33.921875 12.523438 C 33.96875 12.5625 34.015625 12.59375 34.0625 12.632812 C 34.574219 12.886719 35.050781 13.164062 35.523438 13.480469 C 35.550781 13.460938 35.585938 13.457031 35.613281 13.480469 C 35.828125 13.644531 36.042969 13.8125 36.242188 13.992188 C 36.316406 14.050781 36.398438 14.113281 36.476562 14.175781 C 37.988281 15.339844 38.898438 16.808594 39.890625 18.398438 C 40.234375 18.949219 40.550781 19.546875 40.953125 20.0625 C 41.339844 20.554688 41.800781 20.960938 42.445312 21.15625 C 42.503906 21.171875 42.5625 21.1875 42.617188 21.199219 C 45.675781 21.355469 48.75 20.964844 51.800781 20.171875 C 49.265625 20.246094 46.386719 18.941406 44.433594 17.609375 C 44.390625 17.582031 44.351562 17.554688 44.308594 17.523438 C 43.527344 16.992188 42.859375 16.363281 42.238281 15.652344 C 42.195312 15.609375 42.113281 15.539062 42.042969 15.464844 C 41.984375 15.402344 41.925781 15.335938 41.90625 15.273438 C 41.882812 15.214844 41.878906 15.164062 41.894531 15.113281 C 41.910156 15.0625 41.941406 15.007812 42.011719 14.96875 C 42.855469 14.5 44.179688 14.578125 45.566406 14.945312 C 47.613281 15.488281 49.792969 16.648438 50.722656 17.492188 C 51.152344 17.882812 51.5 18.46875 51.90625 18.957031 C 52.234375 19.359375 52.601562 19.695312 53.097656 19.785156 C 55.742188 18.871094 59.773438 16.8125 61.351562 15.023438 C 61.429688 14.933594 61.5625 14.925781 61.652344 15.003906 C 61.726562 15.066406 61.746094 15.164062 61.710938 15.25 C 61.722656 15.257812 61.722656 15.273438 61.730469 15.285156 C 61.746094 15.265625 61.761719 15.253906 61.773438 15.234375 C 61.804688 15.207031 61.847656 15.207031 61.878906 15.230469 C 61.910156 15.261719 61.90625 15.304688 61.882812 15.332031 C 61.695312 15.535156 61.492188 15.714844 61.28125 15.894531 C 61.261719 15.910156 61.230469 15.914062 61.207031 15.902344 C 61.066406 16.027344 60.921875 16.15625 60.773438 16.269531 C 60.746094 16.296875 60.695312 16.289062 60.675781 16.257812 C 60.675781 16.253906 60.671875 16.253906 60.667969 16.25 C 59.785156 16.957031 58.636719 17.675781 57.441406 18.316406 C 57.425781 18.351562 57.398438 18.378906 57.359375 18.394531 C 57.171875 18.472656 56.988281 18.550781 56.8125 18.640625 C 56.765625 18.667969 56.714844 18.6875 56.667969 18.714844 C 56.410156 18.847656 56.160156 18.992188 55.914062 19.152344 C 55.808594 19.390625 55.761719 19.65625 55.734375 19.921875 C 55.707031 20.214844 55.6875 20.511719 55.621094 20.792969 C 55.113281 23.03125 54.410156 24.789062 52.742188 26.445312 C 52.550781 26.632812 51.351562 27.652344 50.765625 27.921875 C 50.636719 27.984375 50.523438 28.011719 50.453125 28.003906 C 50.386719 28 50.339844 27.972656 50.304688 27.933594 C 50.242188 27.867188 50.207031 27.769531 50.191406 27.632812 C 50.175781 27.484375 50.199219 27.28125 50.242188 27.050781 C 50.40625 26.207031 50.90625 24.996094 51.03125 24.730469 C 51.949219 22.789062 53.207031 20.902344 54.878906 19.539062 L 54.871094 19.546875 C 54.488281 19.710938 54.101562 19.867188 53.710938 20.011719 C 53.390625 20.128906 53.0625 20.246094 52.738281 20.347656 C 52.632812 20.382812 52.527344 20.414062 52.414062 20.445312 C 52.363281 20.460938 52.308594 20.472656 52.25 20.488281 C 52.1875 20.507812 52.125 20.523438 52.058594 20.542969 C 51.859375 20.59375 51.65625 20.648438 51.460938 20.695312 C 50.996094 20.808594 50.53125 20.914062 50.0625 21.011719 C 49.832031 21.054688 49.601562 21.101562 49.378906 21.144531 C 49.316406 21.167969 49.25 21.191406 49.183594 21.210938 C 49.183594 21.222656 49.179688 21.230469 49.175781 21.242188 C 47.835938 25.105469 45 28.378906 40.953125 29.480469 C 40.71875 29.542969 39.214844 30 38.496094 30.148438 C 38.28125 30.191406 38.132812 30.199219 38.070312 30.183594 C 37.992188 30.164062 37.953125 30.121094 37.9375 30.066406 C 37.921875 30.027344 37.917969 29.976562 37.945312 29.921875 C 37.964844 29.882812 37.996094 29.828125 38.039062 29.777344 C 38.082031 29.722656 38.136719 29.667969 38.160156 29.628906 C 38.324219 29.355469 38.5 29.101562 38.628906 28.816406 C 39.039062 27.917969 39.476562 27.179688 40.128906 26.433594 C 42.519531 23.71875 47.941406 21.375 47.941406 21.375 C 44.710938 21.824219 41.472656 21.765625 38.269531 21.019531 C 38.261719 21.023438 38.261719 21.023438 38.257812 21.023438 C 37.292969 21.113281 36.394531 21.574219 35.542969 22.148438 C 34.675781 22.734375 33.859375 23.4375 33.101562 24 C 31.765625 24.992188 30.257812 25.695312 28.628906 26.039062 C 27.722656 26.226562 26.8125 26.296875 25.882812 26.304688 C 25.605469 26.304688 25.335938 26.300781 25.054688 26.296875 C 24.941406 26.296875 24.828125 26.292969 24.710938 26.289062 C 24.707031 26.289062 24.628906 26.300781 24.59375 26.304688 C 24.550781 26.304688 24.523438 26.296875 24.5 26.28125 C 24.464844 26.261719 24.441406 26.234375 24.433594 26.203125 C 24.417969 26.171875 24.414062 26.128906 24.4375 26.078125 C 24.46875 26.015625 24.535156 25.945312 24.632812 25.886719 C 24.789062 25.800781 25.027344 25.730469 25.125 25.671875 C 25.570312 25.410156 26.027344 25.085938 26.421875 24.746094 C 27.152344 24.113281 27.773438 23.5 28.648438 23.058594 C 30.65625 22.050781 32.789062 21.933594 34.957031 21.519531 C 35.8125 21.355469 36.617188 21.054688 37.453125 20.8125 C 36.949219 20.675781 36.449219 20.523438 35.949219 20.355469 C 33.335938 19.472656 31.269531 18.433594 29.398438 17.472656 C 29.382812 17.472656 29.359375 17.476562 29.34375 17.472656 C 28.144531 17.277344 27.050781 17.574219 26.007812 18.046875 C 24.941406 18.53125 23.925781 19.199219 22.90625 19.734375 C 21.464844 20.492188 19.539062 20.78125 17.941406 20.566406 C 17.457031 20.503906 16.507812 20.375 16.054688 20.152344 C 16.015625 20.144531 15.980469 20.140625 15.945312 20.136719 C 15.90625 20.128906 15.878906 20.09375 15.882812 20.054688 C 15.886719 20.015625 15.921875 19.992188 15.960938 19.992188 C 15.964844 19.960938 15.984375 19.929688 16.011719 19.902344 C 16.027344 19.886719 16.050781 19.871094 16.09375 19.859375 C 16.132812 19.851562 16.207031 19.847656 16.246094 19.832031 C 16.355469 19.800781 16.460938 19.753906 16.566406 19.714844 C 16.878906 19.597656 17.164062 19.441406 17.457031 19.28125 C 18.34375 18.800781 19.097656 18.136719 20.074219 17.820312 C 21.855469 17.25 23.632812 17.535156 25.453125 17.480469 C 26.515625 17.449219 27.535156 17.132812 28.589844 17.058594 C 28.148438 16.835938 27.710938 16.613281 27.28125 16.40625 C 23.628906 14.628906 20.203125 13.554688 13.8125 15.214844 Z M 55.394531 19.617188 C 55.394531 19.617188 55.402344 19.625 55.402344 19.625 C 55.40625 19.613281 55.402344 19.605469 55.410156 19.59375 Z M 52.117188 26.597656 C 52.328125 26.421875 52.492188 26.273438 52.558594 26.21875 C 54.179688 24.605469 54.859375 22.890625 55.359375 20.710938 C 55.378906 20.628906 55.390625 20.542969 55.402344 20.453125 C 55.363281 20.585938 55.316406 20.722656 55.269531 20.851562 C 55.113281 21.3125 54.96875 21.769531 54.777344 22.21875 C 54.222656 23.507812 53.574219 24.851562 52.707031 25.964844 C 52.527344 26.195312 52.316406 26.394531 52.117188 26.597656 Z M 51.273438 27.042969 C 51.605469 26.6875 51.902344 26.300781 52.179688 25.910156 C 52.828125 25 53.355469 24.027344 53.886719 23.042969 C 54.394531 22.09375 54.96875 21.078125 55.289062 20.023438 C 55.167969 20.320312 55 20.609375 54.871094 20.890625 C 54.648438 21.375 54.441406 21.863281 54.183594 22.332031 C 53.847656 22.941406 53.445312 23.527344 53.074219 24.109375 C 52.632812 24.8125 52.167969 25.503906 51.742188 26.214844 C 51.589844 26.484375 51.449219 26.78125 51.273438 27.042969 Z M 55.042969 19.785156 C 53.425781 21.121094 52.210938 22.949219 51.3125 24.84375 C 51.191406 25.097656 50.707031 26.277344 50.546875 27.09375 C 50.503906 27.289062 50.484375 27.464844 50.5 27.59375 C 50.5 27.605469 50.5 27.613281 50.5 27.625 C 50.527344 27.464844 50.59375 27.3125 50.632812 27.152344 C 50.675781 26.972656 50.6875 26.78125 50.742188 26.601562 C 50.890625 26.109375 51.175781 25.648438 51.402344 25.1875 C 51.578125 24.832031 51.726562 24.464844 51.921875 24.125 C 52.25 23.550781 52.648438 23.015625 53.027344 22.472656 C 53.449219 21.871094 53.863281 21.257812 54.308594 20.667969 C 54.542969 20.359375 54.800781 20.082031 55.042969 19.785156 Z M 50.660156 27.570312 C 50.6875 27.542969 50.71875 27.503906 50.742188 27.476562 C 50.878906 27.195312 50.976562 26.898438 51.113281 26.621094 C 51.246094 26.339844 51.417969 26.078125 51.5625 25.804688 C 51.722656 25.503906 51.859375 25.195312 52.027344 24.898438 C 52.398438 24.253906 52.835938 23.640625 53.230469 23.011719 C 53.820312 22.0625 54.390625 21.09375 54.945312 20.121094 C 54.769531 20.328125 54.589844 20.535156 54.425781 20.753906 C 53.984375 21.339844 53.574219 21.949219 53.148438 22.550781 C 52.773438 23.089844 52.375 23.617188 52.054688 24.191406 C 51.859375 24.53125 51.710938 24.898438 51.539062 25.246094 C 51.3125 25.699219 51.035156 26.15625 50.886719 26.640625 C 50.832031 26.816406 50.820312 27 50.777344 27.179688 C 50.746094 27.3125 50.695312 27.441406 50.660156 27.570312 Z M 51.074219 27.078125 C 51.28125 26.792969 51.4375 26.445312 51.621094 26.140625 C 52.046875 25.429688 52.511719 24.738281 52.953125 24.035156 C 53.324219 23.449219 53.726562 22.875 54.058594 22.265625 C 54.308594 21.800781 54.515625 21.316406 54.734375 20.835938 C 54.800781 20.6875 54.878906 20.542969 54.949219 20.394531 C 54.433594 21.304688 53.898438 22.207031 53.351562 23.089844 C 52.964844 23.71875 52.53125 24.328125 52.160156 24.980469 C 51.992188 25.273438 51.855469 25.578125 51.695312 25.878906 C 51.550781 26.148438 51.378906 26.40625 51.25 26.6875 C 51.1875 26.8125 51.128906 26.949219 51.074219 27.078125 Z M 51.5 27.015625 C 51.65625 26.867188 51.808594 26.71875 51.949219 26.5625 C 52.167969 26.332031 52.402344 26.121094 52.59375 25.875 C 53.449219 24.773438 54.09375 23.4375 54.644531 22.160156 C 54.777344 21.851562 54.886719 21.535156 54.996094 21.222656 C 54.699219 21.875 54.347656 22.511719 54.023438 23.113281 C 53.492188 24.101562 52.953125 25.078125 52.304688 25.996094 C 52.054688 26.34375 51.789062 26.691406 51.5 27.015625 Z M 42.585938 15.394531 C 43.230469 15.773438 43.976562 16.046875 44.609375 16.398438 C 47.007812 17.730469 49.535156 18.882812 52.183594 19.625 C 50.171875 18.574219 48.039062 17.695312 45.976562 16.753906 C 44.84375 16.234375 43.800781 15.628906 42.585938 15.394531 Z M 44.300781 17.128906 C 44.359375 17.171875 44.425781 17.21875 44.488281 17.261719 C 44.53125 17.289062 44.570312 17.320312 44.613281 17.347656 C 46.589844 18.699219 49.542969 20.027344 52.082031 19.84375 C 51.175781 19.703125 50.300781 19.40625 49.410156 19.167969 C 47.703125 18.695312 45.863281 18.097656 44.300781 17.128906 Z M 42.25 15.179688 C 42.261719 15.1875 42.265625 15.195312 42.277344 15.203125 C 43.652344 15.382812 44.785156 16.054688 46.035156 16.628906 C 47.878906 17.472656 49.78125 18.261719 51.601562 19.171875 C 49.503906 17.808594 47.269531 16.449219 44.871094 15.757812 C 44.007812 15.5 43.15625 15.207031 42.25 15.179688 Z M 42.59375 15.566406 C 44.355469 17.445312 47.035156 18.367188 49.453125 19.023438 C 50.179688 19.21875 50.894531 19.457031 51.628906 19.613281 C 49.152344 18.867188 46.789062 17.773438 44.535156 16.527344 C 43.921875 16.1875 43.214844 15.921875 42.59375 15.566406 Z M 43.496094 14.902344 C 44.015625 14.960938 44.554688 15.117188 45.007812 15.226562 C 46.386719 15.535156 48.941406 16.769531 50.097656 17.65625 C 50.515625 17.980469 50.917969 18.316406 51.332031 18.636719 C 51.082031 18.289062 50.832031 17.9375 50.546875 17.679688 C 49.636719 16.859375 47.5 15.726562 45.503906 15.195312 C 44.796875 15.011719 44.105469 14.898438 43.496094 14.902344 Z M 42.652344 15.0625 C 43.421875 15.148438 44.164062 15.398438 44.917969 15.613281 C 47.179688 16.269531 49.304688 17.507812 51.296875 18.796875 C 50.863281 18.460938 50.449219 18.113281 50.011719 17.777344 C 48.871094 16.898438 46.347656 15.679688 44.980469 15.375 C 44.582031 15.285156 44.128906 15.152344 43.671875 15.078125 C 43.320312 15.015625 42.96875 14.996094 42.652344 15.0625 Z M 48.804688 21.441406 C 48.804688 21.441406 48.808594 21.441406 48.808594 21.441406 L 48.8125 21.421875 Z M 41.582031 28.96875 C 41.898438 28.859375 42.199219 28.738281 42.503906 28.597656 C 44.179688 27.523438 45.804688 25.539062 46.929688 24.207031 C 47.632812 23.367188 48.347656 22.691406 48.6875 21.640625 C 47.59375 23.699219 45.722656 25.148438 44.085938 26.75 C 43.269531 27.558594 42.519531 28.378906 41.582031 28.96875 Z M 39.652344 29.535156 C 40.230469 29.375 40.773438 29.210938 40.902344 29.175781 L 40.90625 29.175781 C 42.132812 28.597656 43.007812 27.609375 43.980469 26.648438 C 45.476562 25.179688 47.167969 23.847656 48.277344 22.058594 C 47.671875 22.785156 47.054688 23.519531 46.382812 24.175781 C 45.132812 25.386719 43.695312 26.394531 42.328125 27.476562 C 41.339844 28.257812 40.625 28.984375 39.652344 29.535156 Z M 38.914062 28.933594 C 40.152344 27.632812 41.746094 26.699219 43.210938 25.664062 C 44.988281 24.410156 46.613281 23.019531 48.222656 21.566406 C 48.160156 21.585938 48.097656 21.617188 48.03125 21.644531 C 47.882812 21.820312 47.699219 21.992188 47.492188 22.152344 C 46.957031 22.570312 46.292969 22.9375 45.902344 23.246094 C 44.625 24.261719 43.359375 25.246094 41.996094 26.136719 C 41.027344 26.765625 40.066406 27.277344 39.3125 28.121094 C 39.175781 28.375 39.046875 28.636719 38.921875 28.910156 C 38.917969 28.921875 38.917969 28.929688 38.914062 28.933594 Z M 38.542969 29.589844 C 41.65625 27.371094 44.867188 25.308594 47.472656 22.492188 C 47.699219 22.246094 47.949219 22.027344 48.1875 21.796875 C 46.617188 23.207031 45.027344 24.554688 43.296875 25.785156 C 41.65625 26.941406 39.871094 27.964844 38.585938 29.519531 C 38.570312 29.542969 38.558594 29.566406 38.542969 29.589844 Z M 43.339844 28.171875 C 45.417969 26.988281 47.039062 25.144531 48.132812 22.996094 C 47.808594 23.441406 47.425781 23.847656 47.042969 24.304688 C 46.078125 25.441406 44.757812 27.050781 43.339844 28.171875 Z M 38.429688 29.851562 C 38.523438 29.828125 38.636719 29.808594 38.761719 29.777344 C 38.828125 29.761719 38.890625 29.75 38.953125 29.730469 C 40.273438 29.160156 41.058594 28.308594 42.242188 27.371094 C 43.601562 26.296875 45.035156 25.289062 46.285156 24.082031 C 46.890625 23.496094 47.445312 22.84375 47.992188 22.191406 C 47.855469 22.324219 47.714844 22.457031 47.582031 22.601562 C 44.824219 25.570312 41.390625 27.707031 38.113281 30.078125 Z M 39.617188 27.613281 C 40.304688 26.988281 41.109375 26.542969 41.925781 26.015625 C 43.289062 25.128906 44.550781 24.144531 45.820312 23.136719 C 46.210938 22.824219 46.878906 22.460938 47.410156 22.042969 C 47.507812 21.96875 47.597656 21.894531 47.683594 21.816406 C 46.75 22.34375 45.882812 22.972656 44.984375 23.546875 C 43.1875 24.675781 41.40625 25.78125 39.871094 27.238281 C 39.78125 27.359375 39.695312 27.488281 39.617188 27.613281 Z M 40.449219 26.523438 C 41.824219 25.347656 43.355469 24.398438 44.894531 23.421875 C 45.539062 23.007812 46.167969 22.570312 46.820312 22.15625 C 44.445312 23.226562 42.144531 24.632812 40.449219 26.523438 Z M 33.140625 12.664062 C 33.996094 13.519531 34.554688 14.632812 35.28125 15.589844 C 36.625 17.371094 38.257812 18.921875 40.136719 20.132812 C 40.5 20.363281 40.851562 20.65625 41.222656 20.894531 C 41.246094 20.90625 41.261719 20.917969 41.285156 20.925781 C 41.226562 20.882812 41.171875 20.839844 41.113281 20.796875 C 40.683594 20.476562 40.273438 20.140625 39.859375 19.800781 C 38.222656 18.460938 36.789062 16.980469 35.453125 15.335938 C 34.730469 14.453125 34.0625 13.378906 33.140625 12.664062 Z M 35.894531 17.417969 C 36.074219 17.6875 36.265625 17.9375 36.449219 18.164062 C 37.273438 19.125 38.804688 20.039062 39.953125 20.574219 C 40.238281 20.707031 40.535156 20.839844 40.847656 20.960938 C 40.34375 20.714844 39.863281 20.414062 39.386719 20.136719 C 38.15625 19.40625 36.902344 18.503906 35.894531 17.417969 Z M 35.34375 13.6875 C 35.726562 14.03125 36.097656 14.398438 36.445312 14.773438 C 37.316406 15.710938 38.054688 16.8125 38.828125 17.832031 C 39.3125 18.464844 39.800781 19.078125 40.347656 19.660156 C 40.121094 19.332031 39.898438 19 39.652344 18.683594 C 39.058594 17.921875 38.40625 17.199219 37.835938 16.417969 C 37.449219 15.886719 37.160156 15.292969 36.769531 14.757812 C 36.621094 14.625 36.472656 14.5 36.308594 14.375 C 35.988281 14.132812 35.664062 13.898438 35.34375 13.6875 Z M 33.996094 12.90625 C 34.15625 13.019531 34.308594 13.140625 34.441406 13.269531 C 34.851562 13.644531 35.210938 14.085938 35.589844 14.492188 C 36.722656 15.695312 37.769531 16.960938 38.820312 18.238281 C 39.234375 18.738281 39.667969 19.203125 40.128906 19.652344 C 39.625 19.09375 39.164062 18.523438 38.707031 17.921875 C 37.933594 16.90625 37.199219 15.816406 36.332031 14.878906 C 35.785156 14.292969 35.199219 13.738281 34.578125 13.222656 C 34.394531 13.109375 34.199219 13.003906 33.996094 12.90625 Z M 33.398438 12.691406 C 34.238281 13.410156 34.878906 14.410156 35.554688 15.242188 C 36.886719 16.875 38.308594 18.355469 39.945312 19.683594 C 39.992188 19.722656 40.039062 19.761719 40.082031 19.800781 C 39.601562 19.335938 39.144531 18.851562 38.710938 18.324219 C 37.65625 17.054688 36.613281 15.789062 35.484375 14.582031 C 35.105469 14.183594 34.75 13.742188 34.34375 13.371094 C 34.074219 13.125 33.746094 12.894531 33.398438 12.691406 Z M 34.828125 15.621094 C 35 15.929688 35.171875 16.242188 35.351562 16.542969 C 36.429688 17.96875 37.960938 19.117188 39.457031 20 C 39.558594 20.0625 39.65625 20.121094 39.761719 20.1875 C 39.703125 20.148438 39.652344 20.117188 39.597656 20.078125 C 37.792969 18.910156 36.144531 17.34375 34.828125 15.621094 Z M 37.246094 15.214844 C 37.480469 15.589844 37.691406 15.976562 37.953125 16.335938 C 38.421875 16.988281 38.957031 17.59375 39.460938 18.214844 C 38.777344 17.128906 38.121094 16.105469 37.246094 15.214844 Z M 32.597656 12.375 C 32.910156 12.691406 33.203125 13.015625 33.464844 13.363281 C 33.464844 13.363281 33.472656 13.355469 33.472656 13.355469 C 33.507812 13.335938 33.550781 13.34375 33.570312 13.378906 C 33.972656 14 34.289062 14.65625 34.730469 15.25 C 35.726562 16.609375 36.945312 17.878906 38.28125 18.949219 C 37.117188 17.980469 36.070312 16.878906 35.160156 15.667969 C 34.355469 14.605469 33.753906 13.34375 32.71875 12.464844 C 32.683594 12.4375 32.640625 12.410156 32.597656 12.375 Z M 25.3125 25.90625 C 25.566406 25.847656 25.820312 25.777344 26.0625 25.679688 C 26.398438 25.535156 26.691406 25.3125 27.039062 25.191406 C 29.070312 24.484375 31.113281 23.753906 33.074219 22.882812 C 33.667969 22.621094 34.242188 22.324219 34.816406 22.023438 C 34.894531 21.980469 34.976562 21.933594 35.054688 21.890625 C 34.660156 22.070312 34.226562 22.171875 33.824219 22.316406 C 32.96875 22.621094 32.125 22.941406 31.265625 23.242188 C 29.855469 23.742188 28.417969 24.246094 27.0625 24.890625 C 26.539062 25.136719 26.039062 25.480469 25.535156 25.769531 C 25.453125 25.820312 25.382812 25.863281 25.3125 25.90625 Z M 26.691406 24.921875 C 26.792969 24.867188 26.894531 24.8125 26.996094 24.765625 C 28.359375 24.125 29.796875 23.621094 31.214844 23.113281 C 32.070312 22.808594 32.914062 22.492188 33.773438 22.1875 C 33.976562 22.113281 34.195312 22.050781 34.40625 21.980469 C 33.980469 22.085938 33.554688 22.175781 33.136719 22.300781 C 32.085938 22.613281 31.058594 23.015625 30.007812 23.339844 C 29.136719 23.605469 28.089844 23.824219 27.320312 24.363281 C 27.109375 24.546875 26.90625 24.730469 26.691406 24.921875 Z M 28.867188 25.671875 C 30.355469 25.320312 31.730469 24.660156 32.960938 23.75 C 33.425781 23.402344 33.90625 23.015625 34.40625 22.628906 C 34.117188 22.792969 33.828125 22.957031 33.546875 23.125 C 32.65625 23.675781 31.761719 24.210938 30.839844 24.71875 C 30.195312 25.074219 29.542969 25.40625 28.867188 25.671875 Z M 25.566406 25.996094 L 25.652344 25.996094 C 25.882812 25.980469 26.121094 25.949219 26.351562 25.90625 C 26.882812 25.796875 27.355469 25.574219 27.859375 25.394531 C 28.503906 25.15625 29.171875 24.945312 29.804688 24.671875 C 30.335938 24.4375 30.835938 24.148438 31.367188 23.910156 C 32.238281 23.523438 33.085938 23.101562 33.917969 22.648438 C 33.65625 22.777344 33.398438 22.898438 33.132812 23.015625 C 31.164062 23.886719 29.117188 24.621094 27.085938 25.332031 C 26.746094 25.453125 26.453125 25.675781 26.117188 25.8125 C 25.933594 25.890625 25.746094 25.949219 25.554688 25.996094 Z M 27.929688 23.863281 C 28.585938 23.574219 29.316406 23.398438 29.960938 23.203125 C 31.011719 22.878906 32.039062 22.476562 33.089844 22.164062 C 33.222656 22.125 33.355469 22.089844 33.492188 22.050781 C 31.890625 22.300781 30.320312 22.546875 28.820312 23.300781 C 28.492188 23.464844 28.203125 23.65625 27.929688 23.863281 Z M 26.683594 25.972656 C 27.066406 25.953125 27.449219 25.917969 27.832031 25.867188 C 28.863281 25.589844 29.824219 25.117188 30.773438 24.59375 C 31.53125 24.175781 32.265625 23.742188 33.003906 23.296875 C 32.484375 23.558594 31.960938 23.808594 31.425781 24.046875 C 30.898438 24.285156 30.394531 24.574219 29.863281 24.804688 C 29.226562 25.082031 28.5625 25.296875 27.914062 25.53125 C 27.496094 25.679688 27.101562 25.855469 26.683594 25.972656 Z M 19.34375 20.328125 C 20.542969 20.289062 21.796875 19.992188 22.804688 19.464844 C 23.582031 19.054688 24.359375 18.566406 25.160156 18.144531 C 25.035156 18.191406 24.914062 18.242188 24.800781 18.296875 C 23.167969 19.074219 21.4375 19.96875 19.636719 20.28125 C 19.539062 20.296875 19.4375 20.3125 19.34375 20.328125 Z M 18.898438 18.726562 C 19.375 18.601562 19.875 18.554688 20.375 18.492188 C 21.042969 18.414062 21.714844 18.292969 22.386719 18.257812 C 22.761719 18.234375 23.144531 18.222656 23.523438 18.195312 C 23.960938 18.09375 24.402344 17.988281 24.835938 17.878906 C 24.832031 17.878906 24.820312 17.882812 24.8125 17.882812 C 24.066406 17.964844 23.320312 17.925781 22.574219 17.953125 C 21.484375 17.984375 20.351562 18.109375 19.316406 18.472656 C 19.175781 18.554688 19.035156 18.640625 18.898438 18.726562 Z M 20.207031 18.078125 C 20.984375 17.90625 21.785156 17.835938 22.566406 17.8125 C 23.253906 17.789062 23.941406 17.816406 24.628906 17.757812 C 23.140625 17.738281 21.675781 17.609375 20.207031 18.078125 Z M 17.539062 20.203125 C 17.6875 20.226562 17.820312 20.242188 17.941406 20.257812 C 18.5 20.265625 19.050781 20.238281 19.617188 20.144531 C 21.382812 19.835938 23.070312 18.96875 24.671875 18.199219 C 24.585938 18.21875 24.5 18.234375 24.410156 18.25 C 24.0625 18.363281 23.71875 18.492188 23.371094 18.613281 C 22.355469 18.976562 21.363281 19.441406 20.320312 19.730469 C 19.414062 19.972656 18.476562 20.160156 17.539062 20.203125 Z M 16.71875 20.046875 L 16.734375 20.050781 C 17.925781 20.113281 19.132812 19.90625 20.28125 19.589844 C 21.316406 19.304688 22.304688 18.839844 23.316406 18.476562 C 23.453125 18.429688 23.589844 18.378906 23.726562 18.328125 C 23.667969 18.335938 23.609375 18.339844 23.550781 18.339844 C 22.171875 18.667969 20.796875 18.988281 19.425781 19.332031 C 19.003906 19.441406 18.570312 19.535156 18.148438 19.652344 C 17.675781 19.792969 17.199219 19.953125 16.707031 20.042969 Z M 17.023438 19.832031 C 17.390625 19.738281 17.746094 19.621094 18.105469 19.519531 C 18.53125 19.398438 18.960938 19.304688 19.390625 19.195312 C 20.5 18.914062 21.617188 18.65625 22.726562 18.390625 C 22.613281 18.398438 22.503906 18.402344 22.390625 18.410156 C 21.726562 18.445312 21.050781 18.566406 20.386719 18.644531 C 19.707031 18.722656 19.015625 18.777344 18.402344 19.050781 C 18.148438 19.21875 17.890625 19.378906 17.625 19.527344 C 17.425781 19.628906 17.230469 19.734375 17.023438 19.832031 Z M 21.464844 13.65625 C 21.476562 13.664062 21.480469 13.667969 21.492188 13.679688 C 21.550781 13.714844 21.617188 13.753906 21.671875 13.789062 C 21.679688 13.796875 21.6875 13.800781 21.691406 13.804688 C 21.703125 13.808594 21.714844 13.8125 21.71875 13.820312 C 21.640625 13.75 21.570312 13.683594 21.496094 13.609375 C 21.492188 13.617188 21.488281 13.628906 21.484375 13.640625 C 21.480469 13.648438 21.476562 13.652344 21.464844 13.65625 Z M 16.191406 10.023438 C 16.761719 10.699219 17.339844 11.347656 18.039062 11.914062 C 18.601562 12.359375 19.28125 12.6875 19.910156 13.027344 C 20.3125 13.238281 20.730469 13.445312 21.152344 13.644531 L 21.128906 13.628906 C 20.816406 13.425781 20.511719 13.214844 20.207031 13 C 20.007812 12.871094 19.808594 12.730469 19.609375 12.601562 C 18.664062 11.96875 17.742188 11.410156 16.882812 10.664062 C 16.65625 10.457031 16.421875 10.242188 16.191406 10.023438 Z M 14.433594 6.71875 C 15.847656 7.488281 17.101562 8.519531 18.1875 9.71875 C 18.855469 10.464844 19.515625 11.238281 20.160156 12.007812 C 20.378906 12.273438 20.601562 12.542969 20.84375 12.789062 C 20.746094 12.652344 20.65625 12.511719 20.570312 12.367188 C 20.472656 12.238281 20.371094 12.105469 20.269531 11.976562 C 19.507812 10.929688 18.636719 9.960938 17.726562 9.042969 C 17.234375 8.550781 16.761719 8.007812 16.1875 7.609375 C 15.820312 7.398438 15.4375 7.199219 15.058594 7.003906 C 14.847656 6.90625 14.644531 6.8125 14.433594 6.71875 Z M 14.964844 7.195312 C 16.191406 8.125 17.21875 9.304688 18.257812 10.46875 C 18.882812 11.175781 19.597656 11.832031 20.300781 12.464844 C 20.40625 12.5625 20.507812 12.660156 20.617188 12.765625 C 20.421875 12.550781 20.234375 12.324219 20.050781 12.101562 C 19.410156 11.328125 18.75 10.554688 18.082031 9.808594 C 17.164062 8.800781 16.121094 7.910156 14.964844 7.195312 Z M 13.871094 6.640625 C 14.222656 6.957031 14.550781 7.292969 14.894531 7.621094 C 15.785156 8.476562 16.6875 9.300781 17.546875 10.183594 C 18.144531 10.789062 18.753906 11.414062 19.402344 11.960938 C 19.75 12.25 20.097656 12.527344 20.449219 12.8125 C 20.363281 12.734375 20.28125 12.65625 20.195312 12.578125 C 19.496094 11.941406 18.777344 11.285156 18.140625 10.570312 C 16.851562 9.105469 15.5625 7.613281 13.871094 6.640625 Z M 13.421875 6.441406 C 13.65625 6.769531 13.882812 7.105469 14.15625 7.414062 C 15.0625 8.429688 16.105469 9.3125 17.105469 10.230469 C 18.113281 11.15625 19.171875 12.070312 20.292969 12.871094 L 20.3125 12.886719 C 19.976562 12.617188 19.640625 12.34375 19.304688 12.066406 C 18.652344 11.515625 18.039062 10.886719 17.4375 10.28125 C 16.578125 9.398438 15.675781 8.578125 14.785156 7.726562 C 14.34375 7.292969 13.90625 6.835938 13.421875 6.441406 Z M 17.0625 8.167969 C 17.320312 8.421875 17.570312 8.691406 17.824219 8.945312 C 18.570312 9.699219 19.292969 10.488281 19.949219 11.324219 C 19.730469 10.949219 19.496094 10.574219 19.226562 10.210938 C 18.621094 9.386719 17.878906 8.730469 17.0625 8.167969 Z M 14.96875 8.464844 C 15.050781 8.582031 15.132812 8.699219 15.214844 8.816406 C 15.773438 9.410156 16.382812 10.03125 16.980469 10.550781 C 17.523438 11.023438 18.097656 11.417969 18.679688 11.804688 C 18.109375 11.332031 17.554688 10.835938 17.007812 10.332031 C 16.332031 9.710938 15.632812 9.105469 14.96875 8.464844 Z M 6.652344 14.757812 C 7.375 14.679688 8.105469 14.648438 8.835938 14.660156 C 9.945312 14.679688 11.027344 14.75 12.140625 14.835938 C 12.621094 14.875 13.105469 14.914062 13.589844 14.894531 C 12.882812 14.785156 12.175781 14.582031 11.425781 14.492188 C 9.855469 14.292969 8.214844 14.378906 6.652344 14.757812 Z M 5.964844 16.660156 C 7.632812 16.785156 9.363281 16.632812 10.921875 16.167969 C 11.667969 15.949219 12.382812 15.652344 13.101562 15.359375 C 12.414062 15.535156 11.722656 15.691406 11.03125 15.847656 C 9.339844 16.226562 7.671875 16.585938 5.964844 16.660156 Z M 4.703125 16.507812 C 4.707031 16.503906 4.714844 16.511719 4.71875 16.511719 C 6.863281 16.613281 8.910156 16.171875 11 15.707031 C 11.664062 15.558594 12.324219 15.402344 12.988281 15.234375 C 12.910156 15.234375 12.835938 15.234375 12.765625 15.230469 C 12.140625 15.363281 11.515625 15.527344 10.898438 15.652344 C 9.382812 15.953125 7.855469 16.15625 6.320312 16.347656 C 5.734375 16.421875 5.21875 16.488281 4.703125 16.507812 Z M 5.429688 15.121094 C 6.800781 14.976562 8.1875 14.960938 9.546875 15.023438 C 10.285156 15.058594 11.097656 14.96875 11.839844 15.019531 C 12.019531 15.035156 12.195312 15.046875 12.367188 15.0625 C 12.484375 15.050781 12.601562 15.039062 12.722656 15.023438 C 12.523438 15.007812 12.332031 14.996094 12.132812 14.976562 C 11.019531 14.890625 9.9375 14.820312 8.835938 14.800781 C 7.75 14.78125 6.679688 14.859375 5.613281 15.058594 C 5.570312 15.074219 5.53125 15.082031 5.496094 15.097656 C 5.476562 15.105469 5.449219 15.113281 5.429688 15.121094 Z M 2.003906 15.921875 C 4.03125 16.15625 6.117188 15.96875 8.121094 15.722656 C 9.226562 15.585938 10.3125 15.460938 11.402344 15.285156 C 11.339844 15.292969 11.277344 15.292969 11.214844 15.300781 C 10.199219 15.386719 9.199219 15.453125 8.183594 15.496094 C 6.332031 15.570312 3.871094 15.769531 2.003906 15.921875 Z M 3.269531 15.675781 C 4.894531 15.546875 6.726562 15.410156 8.179688 15.351562 C 9.191406 15.308594 10.191406 15.242188 11.199219 15.15625 C 11.242188 15.148438 11.285156 15.144531 11.328125 15.140625 C 10.734375 15.140625 10.109375 15.1875 9.535156 15.160156 C 7.90625 15.085938 6.222656 15.125 4.585938 15.367188 C 4.160156 15.488281 3.710938 15.585938 3.269531 15.675781 Z M 2.835938 16.136719 C 3.214844 16.21875 3.59375 16.289062 3.972656 16.367188 C 4.75 16.394531 5.449219 16.3125 6.292969 16.203125 C 7.796875 16.015625 9.296875 15.820312 10.78125 15.527344 C 9.902344 15.65625 9.023438 15.757812 8.136719 15.867188 C 6.40625 16.074219 4.601562 16.246094 2.835938 16.136719 Z M 2.835938 16.136719 " fill-opacity="1" fill-rule="evenodd"/></g></g></g></g></g></g><g clip-path="url(#ed76332bef)"><path fill="#ffffff" d="M 10.734375 17.226562 C 11.503906 15.597656 12.679688 16.488281 11.949219 18.046875 C 8.113281 26.203125 14.871094 33.335938 25.386719 36.234375 C 37.753906 39.636719 52.039062 38.546875 61.96875 33.472656 L 62.199219 33.917969 C 52.773438 38.734375 38.480469 40.355469 25.253906 36.714844 C 14.40625 33.730469 6.699219 25.792969 10.734375 17.226562 Z M 10.734375 17.226562 " fill-opacity="1" fill-rule="nonzero"/></g><g fill="#ffffff" fill-opacity="1"><g transform="translate(64.141623, 47.305408)"><g><path d="M 3.300781 2.34375 C 3.636719 2.273438 3.917969 2.167969 4.128906 1.972656 C 5.671875 0.902344 7.214844 -1.878906 8.574219 -5.328125 C 9.28125 -7.035156 9.910156 -8.875 10.511719 -10.859375 C 11.683594 -14.726562 12.613281 -18.539062 13.226562 -21.6875 C 13.519531 -23.207031 13.714844 -24.453125 13.839844 -25.335938 C 14.054688 -26.988281 14.238281 -28.539062 14.464844 -30.144531 C 14.519531 -30.355469 14.53125 -30.558594 14.480469 -30.800781 C 14.410156 -31.140625 14.121094 -31.332031 13.78125 -31.261719 C 13.683594 -31.242188 13.597656 -31.175781 13.523438 -31.058594 C 13.328125 -30.765625 13.234375 -30.496094 13.160156 -30.128906 L 12.859375 -27.902344 C 12.46875 -24.652344 12.046875 -21.542969 11.238281 -18.359375 C 10.148438 -14.109375 8.007812 -6.621094 6.078125 -2.753906 C 5.542969 -1.6875 4.9375 -0.710938 4.121094 0.214844 C 3.765625 0.6875 3.464844 0.949219 3.226562 1 C 2.933594 1.058594 2.613281 0.722656 2.203125 -0.0507812 C 1.511719 -1.46875 1.011719 -2.925781 0.550781 -4.441406 C -0.136719 -6.566406 -0.582031 -8.738281 -0.707031 -11.078125 C -0.949219 -15.207031 -1.125 -19.25 -0.902344 -23.324219 C -0.863281 -23.882812 -0.835938 -24.242188 -1.089844 -24.742188 C -1.140625 -24.984375 -1.390625 -24.984375 -1.585938 -24.945312 C -1.683594 -24.925781 -1.769531 -24.855469 -1.808594 -24.796875 C -1.882812 -24.429688 -1.996094 -24.003906 -2.042969 -23.492188 C -2.230469 -20.230469 -2.1875 -17.070312 -2.125 -13.808594 C -2.046875 -11.460938 -1.9375 -9.21875 -1.492188 -7.292969 C -0.863281 -4.453125 0.0820312 -0.824219 1.75 1.65625 C 2.214844 2.214844 2.71875 2.464844 3.300781 2.34375 Z M 3.300781 2.34375 "/></g></g></g><g fill="#ffffff" fill-opacity="1"><g transform="translate(80.711814, 43.911653)"><g><path d="M 1.722656 -2.164062 C 3.027344 -2.433594 4.121094 -3.714844 4.871094 -4.722656 C 6.632812 -6.945312 7.886719 -9.417969 9.132812 -11.9375 C 9.246094 -12.113281 9.316406 -12.277344 9.3125 -12.527344 C 9.3125 -12.78125 9.222656 -12.964844 9 -13.070312 C 8.886719 -13.144531 8.777344 -13.175781 8.632812 -13.144531 C 8.535156 -13.125 8.449219 -13.054688 8.410156 -13 C 8.210938 -12.753906 8.007812 -12.511719 7.863281 -12.230469 C 7.566406 -11.71875 7.277344 -11.15625 7.03125 -10.652344 C 6.78125 -10.148438 6.492188 -9.585938 6.195312 -9.070312 C 5.351562 -7.539062 4.421875 -6.191406 3.34375 -4.8125 C 2.851562 -4.257812 2.390625 -3.8125 1.695312 -3.519531 C 1.164062 -3.410156 0.863281 -3.398438 0.609375 -3.898438 C 0.425781 -4.316406 0.289062 -4.738281 0.257812 -5.136719 C 0.0820312 -7.464844 0.3125 -10.03125 0.699219 -12.324219 C 0.695312 -12.574219 0.609375 -12.757812 0.347656 -12.804688 C 0.191406 -12.824219 0.0859375 -12.851562 -0.0117188 -12.832031 C -0.109375 -12.8125 -0.242188 -12.734375 -0.367188 -12.609375 C -1.367188 -11.097656 -1.097656 -7.074219 -1 -4.878906 C -0.851562 -4.15625 -0.753906 -3.671875 -0.449219 -3.179688 C 0.078125 -2.332031 0.804688 -1.976562 1.722656 -2.164062 Z M 0.453125 -14.742188 C 0.984375 -14.851562 1.371094 -15.433594 1.261719 -15.964844 C 1.105469 -16.484375 0.714844 -16.65625 0.136719 -16.539062 C -0.445312 -16.417969 -0.675781 -16.070312 -0.554688 -15.492188 C -0.386719 -14.921875 0.0273438 -14.601562 0.453125 -14.742188 Z M 0.453125 -14.742188 "/></g></g></g><g fill="#ffffff" fill-opacity="1"><g transform="translate(89.697396, 42.071309)"><g><path d="M 0.0234375 0.851562 C 0.3125 0.792969 0.523438 0.597656 0.621094 0.324219 C 0.851562 -0.273438 1.050781 -0.769531 1.183594 -1.351562 C 1.449219 -2.261719 1.679688 -3.113281 1.90625 -3.964844 C 2.085938 -4.804688 2.3125 -5.660156 2.542969 -6.511719 C 2.894531 -7.742188 3.351562 -8.941406 4.082031 -10.046875 C 4.226562 -10.328125 4.371094 -10.609375 4.804688 -10.699219 C 4.988281 -10.535156 5.125 -10.363281 5.261719 -10.1875 C 5.398438 -10.015625 5.582031 -9.851562 5.765625 -9.6875 C 6.449219 -9.070312 7.144531 -8.863281 7.964844 -9.03125 C 9.320312 -9.308594 11.019531 -11.316406 11.75 -12.421875 C 11.867188 -12.597656 11.972656 -12.820312 12.058594 -13.140625 C 12.113281 -13.355469 12.027344 -13.535156 11.792969 -13.691406 C 11.628906 -13.757812 11.523438 -13.785156 11.378906 -13.757812 C 11.28125 -13.738281 11.230469 -13.726562 11.195312 -13.667969 C 10.980469 -13.472656 10.820312 -13.289062 10.664062 -13.058594 C 9.980469 -12.210938 8.578125 -10.464844 7.707031 -10.285156 C 7.273438 -10.199219 6.828125 -10.410156 6.371094 -10.917969 C 6.246094 -11.042969 6.109375 -11.21875 6.011719 -11.449219 C 5.875 -11.621094 5.738281 -11.796875 5.613281 -11.921875 C 5.292969 -12.257812 4.960938 -12.390625 4.574219 -12.3125 C 4.382812 -12.273438 4.199219 -12.1875 4.027344 -12.050781 C 2.714844 -10.824219 1.894531 -8.945312 1.425781 -7.289062 L 0.324219 -3.085938 L 0.265625 -3.125 L 0.3125 -3.136719 C -0.0351562 -3.617188 0.0117188 -4.128906 0.046875 -4.691406 C 0.136719 -6.21875 0.359375 -7.824219 0.683594 -9.453125 C 0.917969 -10.507812 1.15625 -11.5625 1.34375 -12.609375 C 1.410156 -13.023438 1.4375 -13.382812 1.367188 -13.71875 C 1.367188 -13.972656 1.242188 -14.097656 0.929688 -14.132812 L 0.785156 -14.105469 C 0.59375 -14.066406 0.457031 -13.988281 0.378906 -13.871094 C 0.277344 -13.648438 0.226562 -13.386719 0.132812 -13.113281 C -0.765625 -8.902344 -1.464844 -5.4375 -1.214844 -1.011719 C -1.210938 -0.757812 -1.171875 -0.566406 -1.132812 -0.371094 C -1.035156 -0.140625 -0.996094 0.0546875 -0.957031 0.246094 C -0.828125 0.621094 -0.585938 0.824219 -0.226562 0.851562 C -0.179688 0.84375 -0.132812 0.832031 -0.121094 0.878906 C -0.0742188 0.871094 -0.0234375 0.859375 0.0234375 0.851562 Z M 0.0234375 0.851562 "/></g></g></g><g fill="#ffffff" fill-opacity="1"><g transform="translate(101.484932, 39.657094)"><g><path d="M 1.570312 3.25 C 2.34375 3.09375 3.125 2.230469 3.441406 1.558594 C 4.621094 -0.542969 5.875 -3.265625 7.023438 -5.765625 C 8 -7.878906 9.28125 -10.710938 10.011719 -12.066406 C 10.089844 -12.183594 10.117188 -12.289062 10.097656 -12.386719 C 10.183594 -12.707031 10.085938 -12.9375 9.804688 -13.082031 C 9.648438 -13.101562 9.542969 -13.128906 9.445312 -13.109375 C 9.398438 -13.097656 9.398438 -13.097656 9.347656 -13.089844 C 9.3125 -13.03125 9.3125 -13.03125 9.261719 -13.019531 C 9.039062 -12.875 8.878906 -12.691406 8.761719 -12.515625 C 8.65625 -12.292969 8.503906 -12.058594 8.398438 -11.835938 C 7.285156 -10.148438 4.339844 -2.902344 2.832031 0.0742188 C 2.652344 0.414062 2.46875 0.753906 2.289062 1.09375 C 2.09375 1.382812 1.84375 1.636719 1.421875 1.773438 C 0.578125 1.339844 0.640625 0.421875 0.539062 -0.3125 C 0.339844 -2.03125 0.214844 -3.617188 0.273438 -5.292969 C 0.328125 -8.222656 1.269531 -16.417969 1.875 -19.109375 C 1.988281 -19.785156 2.410156 -20.175781 3.078125 -20.363281 L 13.277344 -23.40625 C 13.507812 -23.503906 13.703125 -23.542969 13.886719 -23.632812 C 14.078125 -23.671875 14.261719 -23.761719 14.492188 -23.859375 C 14.675781 -23.945312 14.734375 -24.160156 14.683594 -24.398438 C 14.566406 -24.730469 14.390625 -24.84375 14.199219 -24.804688 L 13.039062 -24.566406 L 12.460938 -24.449219 C 11.136719 -24.027344 9.71875 -23.585938 8.140625 -23.160156 C 6.578125 -22.691406 5.160156 -22.246094 3.835938 -21.824219 C 3.785156 -21.816406 3.691406 -21.796875 3.59375 -21.777344 C 3.507812 -21.707031 3.410156 -21.6875 3.3125 -21.667969 C 3.121094 -21.628906 2.917969 -21.636719 2.664062 -21.636719 C 2.617188 -21.878906 2.617188 -22.128906 2.671875 -22.34375 C 2.691406 -22.496094 2.746094 -22.710938 2.765625 -22.867188 C 3.128906 -24.296875 3.5 -25.683594 3.761719 -27.097656 C 3.914062 -27.582031 3.882812 -27.976562 3.785156 -28.207031 C 3.640625 -28.429688 3.476562 -28.496094 3.28125 -28.457031 C 2.945312 -28.386719 2.664062 -28.03125 2.445312 -27.378906 C 2.285156 -26.945312 2.121094 -26.507812 2.007812 -26.082031 C 1.84375 -25.648438 1.730469 -25.21875 1.566406 -24.785156 L 0.859375 -21.617188 C 0.726562 -21.039062 0.386719 -20.71875 -0.183594 -20.550781 C -0.984375 -20.285156 -1.832031 -20.011719 -2.683594 -19.734375 C -3.53125 -19.460938 -4.382812 -19.1875 -5.222656 -18.863281 C -5.453125 -18.765625 -5.6875 -18.667969 -5.917969 -18.570312 C -6.101562 -18.480469 -6.273438 -18.347656 -6.507812 -18.25 C -6.738281 -18.152344 -6.746094 -17.949219 -6.636719 -17.667969 C -6.5625 -17.53125 -6.445312 -17.457031 -6.242188 -17.445312 C -6.085938 -17.429688 -5.941406 -17.457031 -5.699219 -17.507812 C -5.3125 -17.585938 -4.898438 -17.773438 -4.523438 -17.898438 C -3.902344 -18.078125 -3.246094 -18.3125 -2.589844 -18.546875 C -1.980469 -18.773438 -1.324219 -19.007812 -0.707031 -19.183594 L -0.320312 -19.261719 C 0.257812 -19.382812 0.355469 -19.148438 0.261719 -18.375 C 0.09375 -17.484375 0.0117188 -16.664062 -0.140625 -15.675781 C -0.84375 -11 -1.515625 -3.96875 -0.558594 0.71875 C -0.328125 1.828125 0.316406 3.507812 1.570312 3.25 Z M 1.570312 3.25 "/></g></g></g><g fill="#ffffff" fill-opacity="1"><g transform="translate(111.19516, 37.668334)"><g><path d="M 9.480469 -5.816406 C 9.671875 -5.855469 9.816406 -5.886719 9.953125 -5.964844 C 12.386719 -6.867188 14.746094 -10.824219 15.992188 -13.089844 C 16.070312 -13.207031 16.128906 -13.421875 16.222656 -13.691406 C 16.316406 -13.964844 16.183594 -14.136719 15.890625 -14.328125 C 15.773438 -14.40625 15.667969 -14.433594 15.523438 -14.402344 C 15.425781 -14.382812 15.339844 -14.316406 15.300781 -14.257812 C 15.023438 -13.898438 14.792969 -13.550781 14.570312 -13.152344 C 13.667969 -11.660156 11.105469 -7.460938 9.414062 -7.113281 C 9.027344 -7.035156 8.726562 -7.273438 8.5625 -7.84375 C 8.414062 -8.316406 8.316406 -8.800781 8.265625 -9.292969 C 8.082031 -10.917969 8.125 -12.4375 8.273438 -13.925781 C 8.269531 -14.175781 8.316406 -14.4375 8.316406 -14.691406 C 8.324219 -14.894531 8.324219 -15.144531 8.324219 -15.394531 C 8.3125 -15.695312 8.175781 -15.871094 7.855469 -15.953125 C 7.703125 -15.972656 7.59375 -16.003906 7.5 -15.980469 C 7.355469 -15.953125 7.265625 -15.882812 7.152344 -15.710938 C 6.960938 -15.417969 6.757812 -15.175781 6.613281 -14.894531 C 6.421875 -14.605469 6.269531 -14.371094 6.074219 -14.082031 C 5.019531 -12.101562 3.890625 -10.257812 2.484375 -8.511719 C 2.28125 -8.269531 2.082031 -8.027344 1.867188 -7.832031 C 1.667969 -7.589844 1.417969 -7.335938 1.214844 -7.09375 C 1.050781 -6.910156 0.917969 -6.832031 0.867188 -6.820312 C 0.769531 -6.800781 0.722656 -6.792969 0.664062 -6.832031 C 0.511719 -6.847656 0.441406 -6.9375 0.421875 -7.03125 C 0.402344 -7.128906 0.382812 -7.226562 0.363281 -7.324219 C 0.289062 -8.917969 0.425781 -10.457031 0.875 -11.957031 C 1.007812 -12.285156 1.09375 -12.605469 1.1875 -12.878906 C 1.359375 -13.265625 1.261719 -13.496094 0.921875 -13.679688 C 0.808594 -13.757812 0.652344 -13.773438 0.507812 -13.746094 C 0.363281 -13.714844 0.1875 -13.578125 0.0351562 -13.347656 L -0.242188 -12.734375 C -0.863281 -10.847656 -1.027344 -8.949219 -0.882812 -7.015625 C -0.84375 -6.574219 -0.761719 -6.1875 -0.609375 -5.914062 C -0.382812 -5.308594 0.0234375 -5.039062 0.652344 -5.167969 C 0.796875 -5.195312 0.933594 -5.273438 1.117188 -5.363281 C 2.660156 -6.433594 3.945312 -8.257812 4.984375 -9.828125 C 5.175781 -10.121094 5.378906 -10.363281 5.570312 -10.652344 C 5.714844 -10.933594 5.867188 -11.167969 6.058594 -11.460938 C 6.097656 -11.515625 6.175781 -11.632812 6.25 -11.75 C 6.28125 -11.855469 6.367188 -11.925781 6.511719 -11.953125 L 6.609375 -11.972656 C 6.761719 -11.957031 6.878906 -11.878906 6.859375 -11.722656 C 6.84375 -11.570312 6.8125 -11.460938 6.84375 -11.316406 C 6.882812 -10.875 6.933594 -10.378906 6.976562 -9.933594 C 7.015625 -9.492188 7 -9.085938 7.007812 -8.785156 C 7.316406 -7.289062 7.789062 -5.472656 9.480469 -5.816406 Z M 9.480469 -5.816406 "/></g></g></g><g fill="#ffffff" fill-opacity="1"><g transform="translate(127.089015, 34.4131)"><g><path d="M -0.609375 -4.203125 C 0.0195312 -4.332031 0.703125 -5.175781 1.058594 -5.652344 C 2.039062 -7.011719 2.863281 -8.386719 3.707031 -9.921875 C 3.820312 -10.09375 3.976562 -10.328125 4.082031 -10.550781 C 4.1875 -10.773438 4.398438 -10.96875 4.707031 -11.183594 C 4.636719 -9.808594 4.601562 -8.492188 4.871094 -7.1875 C 5.058594 -6.269531 5.542969 -5.867188 6.363281 -6.035156 C 6.558594 -6.074219 6.703125 -6.105469 6.789062 -6.171875 C 8.75 -6.925781 11.515625 -10.867188 12.628906 -12.554688 C 12.667969 -12.613281 12.746094 -12.726562 12.785156 -12.785156 C 12.824219 -12.84375 12.8125 -12.894531 12.851562 -12.949219 C 12.878906 -13.308594 12.78125 -13.539062 12.507812 -13.636719 C 12.394531 -13.710938 12.285156 -13.742188 12.140625 -13.710938 C 12.09375 -13.703125 12.054688 -13.644531 11.917969 -13.566406 C 11.792969 -13.4375 11.667969 -13.3125 11.59375 -13.195312 C 11.476562 -13.023438 11.351562 -12.894531 11.238281 -12.722656 C 10.871094 -12.292969 10.554688 -11.875 10.285156 -11.46875 C 9.96875 -11.050781 9.660156 -10.585938 9.296875 -10.160156 C 8.824219 -9.507812 8.277344 -8.992188 7.773438 -8.488281 C 7.390625 -8.15625 6.996094 -7.875 6.597656 -7.59375 C 6.5625 -7.535156 6.511719 -7.523438 6.414062 -7.503906 C 6.222656 -7.464844 6.097656 -7.589844 6.035156 -7.878906 C 5.613281 -9.957031 6.386719 -13.792969 6.929688 -15.816406 C 6.976562 -16.078125 7.03125 -16.289062 7.128906 -16.5625 C 7.183594 -16.773438 7.242188 -16.988281 7.289062 -17.25 C 7.34375 -17.710938 7.226562 -18.039062 6.851562 -18.164062 C 6.695312 -18.183594 6.589844 -18.210938 6.539062 -18.203125 C 6.394531 -18.171875 6.222656 -18.035156 6.03125 -17.746094 C 5.914062 -17.570312 5.859375 -17.359375 5.789062 -17.191406 C 5.683594 -16.96875 5.628906 -16.757812 5.511719 -16.582031 C 5.300781 -16.136719 5.09375 -15.691406 4.929688 -15.253906 C 4.71875 -14.808594 4.507812 -14.363281 4.289062 -13.964844 C 4.144531 -13.683594 4.027344 -13.511719 3.933594 -13.488281 C 3.882812 -13.480469 3.71875 -13.546875 3.449219 -13.640625 C 2.886719 -13.929688 2.363281 -14.023438 1.878906 -13.925781 C 1.347656 -13.816406 0.855469 -13.515625 0.414062 -12.972656 C 0.125 -12.660156 -0.078125 -12.417969 -0.183594 -12.195312 C -1.335938 -10.449219 -2.34375 -7.273438 -1.910156 -5.144531 C -1.703125 -4.382812 -1.238281 -4.074219 -0.609375 -4.203125 Z M -0.53125 -6.03125 C -0.539062 -6.082031 -0.539062 -6.082031 -0.589844 -6.070312 L -0.648438 -6.109375 C -0.6875 -8.265625 -0.0742188 -10.203125 1.152344 -11.8125 C 1.347656 -12.105469 1.855469 -12.5625 2.195312 -12.632812 C 2.4375 -12.679688 2.648438 -12.625 2.921875 -12.527344 C 3.191406 -12.433594 3.289062 -12.199219 3.253906 -11.890625 C 3.234375 -11.734375 3.148438 -11.667969 3.109375 -11.609375 C 2.132812 -9.75 1.152344 -7.886719 -0.125 -6.265625 C -0.203125 -6.148438 -0.335938 -6.070312 -0.53125 -6.03125 Z M -0.53125 -6.03125 "/></g></g></g><g fill="#ffffff" fill-opacity="1"><g transform="translate(139.601198, 31.850469)"><g><path d="M 2.117188 2.234375 C 3.085938 2.035156 4.292969 0.078125 4.65625 -0.851562 C 5.394531 -2.414062 6.171875 -4.03125 6.925781 -5.746094 C 7.644531 -7.40625 8.421875 -9.023438 9.167969 -10.535156 C 9.332031 -10.972656 9.53125 -11.464844 9.644531 -11.890625 C 9.761719 -12.066406 9.769531 -12.269531 9.71875 -12.511719 C 9.71875 -12.761719 9.628906 -12.945312 9.371094 -12.992188 C 9.214844 -13.011719 9.109375 -13.039062 9.011719 -13.019531 C 8.671875 -12.949219 8.398438 -12.089844 8.300781 -11.816406 C 6.777344 -8.433594 5.019531 -4.5 3.339844 -1.136719 C 3.167969 -0.75 2.488281 0.597656 2.054688 0.6875 C 1.8125 0.734375 1.636719 0.621094 1.539062 0.390625 C 1.003906 -0.507812 0.890625 -1.542969 0.839844 -2.539062 C 0.46875 -5.582031 0.0664062 -10.988281 1.230469 -13.894531 C 2.769531 -17.683594 5.5 -25.488281 5.578125 -29.53125 C 5.546875 -29.929688 5.421875 -30.304688 4.945312 -30.410156 C 4.742188 -30.417969 4.636719 -30.445312 4.589844 -30.4375 C 4.394531 -30.398438 4.171875 -30.25 3.972656 -30.007812 C 1.320312 -25.992188 0.109375 -18.144531 -0.4375 -13.449219 C -0.550781 -12.269531 -0.640625 -11.246094 -1.179688 -10.179688 C -1.332031 -9.945312 -1.417969 -9.625 -1.175781 -9.425781 C -0.632812 -8.980469 -0.707031 -8.363281 -0.742188 -7.800781 C -0.75 -5.636719 -0.675781 -3.535156 -0.21875 -1.0625 C -0.1875 -0.917969 -0.136719 -0.675781 -0.078125 -0.386719 C -0.0195312 -0.0976562 0.0390625 0.191406 0.15625 0.523438 C 0.460938 1.265625 1.199219 2.421875 2.117188 2.234375 Z M 1.957031 -18.472656 C 1.75 -18.730469 1.730469 -19.078125 1.796875 -19.496094 C 2.230469 -22.050781 2.886719 -24.5 3.742188 -26.941406 C 3.886719 -27.222656 4.003906 -27.398438 4.148438 -27.425781 C 4.195312 -27.4375 4.300781 -27.410156 4.457031 -27.390625 C 4.398438 -27.429688 4.390625 -27.476562 4.378906 -27.523438 C 4.390625 -27.476562 4.390625 -27.476562 4.449219 -27.4375 L 4.457031 -27.390625 L 3.6875 -24.515625 C 3.097656 -22.480469 2.554688 -20.457031 2.003906 -18.480469 C 1.992188 -18.53125 1.992188 -18.53125 1.992188 -18.53125 C 1.945312 -18.519531 1.945312 -18.519531 1.957031 -18.472656 Z M 1.957031 -18.472656 "/></g></g></g><g fill="#a39692" fill-opacity="1"><g transform="translate(16.411397, 23.829207)"><g><path d="M 0.320312 0.117188 L 1.347656 0.488281 L 1.386719 0.382812 C 1.03125 0.113281 0.945312 -0.21875 1.285156 -1.152344 L 2.4375 -4.332031 L 3.214844 -0.480469 L 3.390625 -0.417969 L 6.394531 -2.972656 L 5.054688 0.730469 C 4.851562 1.28125 4.714844 1.492188 4.433594 1.484375 L 4.394531 1.59375 L 5.816406 2.109375 L 5.855469 2 C 5.636719 1.824219 5.664062 1.578125 5.863281 1.027344 L 6.933594 -1.929688 C 7.273438 -2.863281 7.539062 -3.070312 7.9375 -3.066406 L 7.976562 -3.171875 L 6.886719 -3.566406 L 3.949219 -1.078125 L 3.199219 -4.902344 L 2.050781 -5.320312 L 2.011719 -5.210938 C 2.320312 -4.960938 2.390625 -4.632812 2.050781 -3.699219 L 0.980469 -0.746094 C 0.78125 -0.195312 0.644531 0.015625 0.359375 0.0078125 Z M 0.320312 0.117188 "/></g></g></g><g fill="#a39692" fill-opacity="1"><g transform="translate(24.82528, 26.692612)"><g><path d="M 0.371094 0.0898438 L 4.382812 1.039062 L 4.710938 -0.105469 L 4.613281 -0.144531 C 4.121094 0.59375 3.515625 0.699219 2.714844 0.511719 L 1.957031 0.328125 C 1.703125 0.269531 1.59375 0.09375 1.652344 -0.160156 L 2.222656 -2.554688 L 2.980469 -2.371094 C 3.949219 -2.144531 4.179688 -1.886719 4.210938 -1.445312 L 4.320312 -1.417969 L 4.636719 -2.75 L 4.523438 -2.777344 C 4.300781 -2.394531 3.976562 -2.269531 3.011719 -2.5 L 2.25 -2.679688 L 2.816406 -5.058594 L 3.742188 -4.835938 C 4.628906 -4.625 5.070312 -4.269531 5.203125 -3.417969 L 5.3125 -3.417969 L 5.492188 -4.554688 L 1.6875 -5.457031 L 1.660156 -5.347656 C 1.902344 -5.199219 1.902344 -4.945312 1.765625 -4.375 L 0.929688 -0.84375 C 0.792969 -0.273438 0.679688 -0.046875 0.398438 -0.0234375 Z M 0.371094 0.0898438 "/></g></g></g><g fill="#a39692" fill-opacity="1"><g transform="translate(31.553626, 28.178022)"><g><path d="M 1.515625 0.207031 L 3.027344 0.410156 L 3.042969 0.296875 C 2.785156 0.171875 2.761719 -0.078125 2.84375 -0.65625 L 3.449219 -5.136719 L 3.683594 -5.105469 C 4.402344 -5.007812 4.738281 -4.753906 4.949219 -4.070312 L 5.046875 -4.074219 L 5.132812 -5.054688 L 0.929688 -5.625 L 0.746094 -4.65625 L 0.839844 -4.628906 C 1.226562 -5.230469 1.617188 -5.382812 2.335938 -5.289062 L 2.585938 -5.253906 L 1.980469 -0.773438 C 1.898438 -0.195312 1.8125 0.0390625 1.53125 0.09375 Z M 1.515625 0.207031 "/></g></g></g><g fill="#a39692" fill-opacity="1"><g transform="translate(38.043491, 28.929636)"><g><path d="M 0.640625 -5.125 L 0.835938 -3.617188 L 0.902344 -3.613281 L 1.289062 -5.082031 C 1.375 -5.425781 1.261719 -5.6875 1.003906 -5.703125 C 0.742188 -5.722656 0.597656 -5.476562 0.640625 -5.125 Z M 0.640625 -5.125 "/></g></g></g><g fill="#a39692" fill-opacity="1"><g transform="translate(41.280952, 29.137336)"><g><path d="M -0.171875 0.00390625 L 0.773438 -0.0078125 L 0.773438 -0.125 C 0.496094 -0.183594 0.441406 -0.421875 0.65625 -0.96875 L 1.113281 -2.140625 L 3.289062 -2.164062 L 3.792969 -0.996094 C 4.027344 -0.464844 4.140625 -0.253906 3.875 -0.160156 L 3.875 -0.046875 L 5.359375 -0.0625 L 5.355469 -0.179688 C 5.167969 -0.265625 4.953125 -0.472656 4.71875 -1.007812 L 2.644531 -5.796875 L 1.847656 -5.429688 L 1.957031 -5.203125 C 2.03125 -5.058594 2.042969 -4.925781 1.980469 -4.761719 L 0.5 -0.96875 C 0.289062 -0.417969 0.0703125 -0.203125 -0.171875 -0.113281 Z M 1.160156 -2.269531 L 2.148438 -4.796875 L 3.230469 -2.292969 Z M 1.160156 -2.269531 "/></g></g></g><g fill="#a39692" fill-opacity="1"><g transform="translate(48.576816, 28.937479)"><g><path d="M 4.503906 -0.46875 C 4.640625 -0.484375 4.898438 -0.523438 5.078125 -0.59375 L 5.066406 -0.707031 C 5.027344 -0.695312 4.984375 -0.691406 4.945312 -0.683594 C 4.644531 -0.648438 4.535156 -0.832031 3.980469 -1.859375 C 3.425781 -2.882812 3.203125 -3.242188 2.277344 -3.242188 C 3.335938 -3.496094 3.78125 -4.113281 3.695312 -4.859375 C 3.617188 -5.515625 3.179688 -6.109375 1.417969 -5.90625 L -0.28125 -5.707031 L -0.269531 -5.59375 C 0.0078125 -5.535156 0.09375 -5.300781 0.160156 -4.714844 L 0.582031 -1.109375 C 0.652344 -0.527344 0.625 -0.277344 0.367188 -0.15625 L 0.378906 -0.0429688 L 1.882812 -0.21875 L 1.871094 -0.332031 C 1.59375 -0.390625 1.507812 -0.628906 1.441406 -1.210938 L 1.222656 -3.085938 L 1.699219 -3.140625 C 2.410156 -3.226562 2.496094 -2.832031 3.121094 -1.710938 C 3.621094 -0.808594 3.832031 -0.390625 4.503906 -0.46875 Z M 1.207031 -3.214844 L 0.917969 -5.691406 C 1.035156 -5.71875 1.15625 -5.742188 1.269531 -5.757812 C 2.28125 -5.875 2.785156 -5.21875 2.859375 -4.566406 C 2.933594 -3.941406 2.644531 -3.382812 1.722656 -3.277344 Z M 1.207031 -3.214844 "/></g></g></g><g fill="#a39692" fill-opacity="1"><g transform="translate(55.596144, 28.003413)"><g><path d="M 1.496094 -0.328125 L 2.984375 -0.652344 L 2.957031 -0.765625 C 2.675781 -0.796875 2.570312 -1.023438 2.441406 -1.59375 L 1.476562 -6.007812 L 1.707031 -6.058594 C 2.414062 -6.214844 2.816406 -6.09375 3.25 -5.523438 L 3.339844 -5.558594 L 3.082031 -6.511719 L -1.0625 -5.601562 L -0.898438 -4.628906 L -0.800781 -4.636719 C -0.644531 -5.335938 -0.328125 -5.613281 0.378906 -5.769531 L 0.625 -5.820312 L 1.59375 -1.40625 C 1.71875 -0.835938 1.714844 -0.585938 1.472656 -0.4375 Z M 1.496094 -0.328125 "/></g></g></g><path stroke-linecap="butt" transform="matrix(0.637962, 0.231235, -0.231235, 0.637962, 18.62287, 16.425994)" fill="none" stroke-linejoin="miter" d="M 0.50535 10.997121 L 2.111611 11.002727 L 2.110806 10.831574 C 1.490335 10.640105 1.20257 10.217828 1.199173 8.755659 L 1.20091 3.77702 L 4.212065 8.722891 L 4.486991 8.72121 L 7.369367 3.665893 L 7.369224 9.476685 C 7.369801 10.33982 7.280897 10.702687 6.887309 10.833101 L 6.886153 10.998841 L 9.12047 10.997231 L 9.121626 10.83149 C 8.724868 10.699763 8.637208 10.339663 8.63663 9.476528 L 8.64194 4.845605 C 8.636581 3.378024 8.902593 2.963209 9.456579 2.768535 L 9.457735 2.602795 L 7.755073 2.601515 L 4.932843 7.518695 L 1.967891 2.598938 L 0.168829 2.601984 L 0.167673 2.767725 C 0.720766 2.959124 0.982959 3.378423 0.982905 4.847966 L 0.983008 9.476927 C 0.983586 10.340062 0.900093 10.700968 0.501094 10.833343 Z M 0.50535 10.997121 " stroke="#ffffff" stroke-width="0.825" stroke-opacity="1" stroke-miterlimit="4"/><path stroke-linecap="butt" transform="matrix(0.660258, 0.156603, -0.156603, 0.660258, 26.215795, 19.044142)" fill="none" stroke-linejoin="miter" d="M 0.566084 10.998334 L 6.637016 11.00197 L 6.718261 9.249239 L 6.564947 9.22644 C 6.108961 10.446847 5.277981 10.809598 4.070251 10.806156 L 2.916916 10.807561 C 2.531585 10.804296 2.316299 10.595043 2.319565 10.209713 L 2.317359 6.583577 L 3.470694 6.582171 C 4.932559 6.584499 5.349379 6.870192 5.545638 7.498094 L 5.710441 7.494503 L 5.712443 5.482504 L 5.54071 5.481823 C 5.351638 6.10646 4.927926 6.390361 3.46739 6.393635 L 2.319656 6.393712 L 2.317163 2.791309 L 3.719031 2.790118 C 5.067831 2.789681 5.821655 3.149265 6.297435 4.332075 L 6.45854 4.287948 L 6.323997 2.598231 L 0.568525 2.602601 L 0.566515 2.768732 C 0.958668 2.900537 1.043692 3.259011 1.041614 4.123276 L 1.045263 9.476614 C 1.043185 10.340879 0.963406 10.702943 0.568094 10.832202 Z M 0.566084 10.998334 " stroke="#ffffff" stroke-width="0.825" stroke-opacity="1" stroke-miterlimit="4"/><path stroke-linecap="butt" transform="matrix(0.672409, 0.0912763, -0.0912763, 0.672409, 32.225548, 20.395892)" fill="none" stroke-linejoin="miter" d="M 2.256068 11.002504 L 4.498164 11.000236 L 4.498526 10.831716 C 4.102973 10.699512 4.019191 10.339087 4.018676 9.479375 L 4.020389 2.815834 L 4.368837 2.815008 C 5.432068 2.815913 5.977893 3.113618 6.416497 4.076522 L 6.564033 4.050686 L 6.495171 2.60189 L 0.238668 2.603017 L 0.168306 4.053284 L 0.310627 4.07463 C 0.755326 3.113817 1.296324 2.819624 2.36526 2.819755 L 2.736525 2.815832 L 2.734812 9.479374 C 2.735327 10.339086 2.650589 10.699148 2.25643 10.833984 Z M 2.256068 11.002504 " stroke="#ffffff" stroke-width="0.825" stroke-opacity="1" stroke-miterlimit="4"/><path stroke-linecap="butt" transform="matrix(0.677185, 0.0434298, -0.0434298, 0.677185, 38.189103, 21.094974)" fill="none" stroke-linejoin="miter" d="M 0.458021 3.400997 L 0.88747 5.600045 L 0.985499 5.599527 L 1.4157 3.40303 C 1.509663 2.889388 1.318381 2.515175 0.932009 2.51688 C 0.551383 2.518217 0.36167 2.888023 0.458021 3.400997 Z M 0.458021 3.400997 " stroke="#ffffff" stroke-width="0.825" stroke-opacity="1" stroke-miterlimit="4"/><path stroke-linecap="butt" transform="matrix(0.678528, -0.00809361, 0.00809361, 0.678528, 40.85981, 21.287901)" fill="none" stroke-linejoin="miter" d="M -0.25275 11.00023 L 1.14044 10.999577 L 1.142431 10.832649 C 0.734844 10.735676 0.658378 10.389347 0.984578 9.587265 L 1.678643 7.868459 L 4.885289 7.86641 L 5.607301 9.59635 C 5.943262 10.38906 6.106483 10.701882 5.713418 10.83536 L 5.711427 11.002288 L 7.893344 10.99953 L 7.895335 10.832602 C 7.620551 10.702671 7.307672 10.388064 6.97171 9.595354 L 3.993625 2.501809 L 2.818677 3.028948 L 2.975797 3.370482 C 3.082623 3.584763 3.097626 3.774922 3.002644 4.015581 L 0.754332 9.584519 C 0.428133 10.386601 0.107769 10.699412 -0.250759 10.833302 Z M 1.750051 7.673574 L 3.250776 3.966728 L 4.801213 7.675427 Z M 1.750051 7.673574 " stroke="#ffffff" stroke-width="0.825" stroke-opacity="1" stroke-miterlimit="4"/><path stroke-linecap="butt" transform="matrix(0.673984, -0.0788067, 0.0788067, 0.673984, 47.377828, 21.138022)" fill="none" stroke-linejoin="miter" d="M 6.669108 11.082722 C 6.877615 11.083919 7.261662 11.070867 7.536704 10.998703 L 7.533222 10.830219 C 7.479089 10.847072 7.415527 10.845436 7.357683 10.844468 C 6.911411 10.844449 6.777023 10.556335 6.146 8.964062 C 5.509928 7.365404 5.245531 6.801279 3.890462 6.642835 C 5.483384 6.452366 6.240818 5.6252 6.242722 4.518433 C 6.240684 3.544507 5.701932 2.600557 3.082149 2.60141 L 0.56662 2.602862 L 0.565054 2.76496 C 0.960974 2.89819 1.040263 3.261002 1.043567 4.124956 L 1.044006 9.474494 C 1.041593 10.33778 0.958783 10.699025 0.566415 10.832816 L 0.56418 11.000631 L 2.795537 11.000727 L 2.797771 10.832912 C 2.401851 10.699681 2.316176 10.341918 2.318589 9.478632 L 2.319971 6.691034 L 3.021159 6.691881 C 4.081517 6.694154 4.14045 7.28062 4.862726 9.034252 C 5.435096 10.434202 5.672312 11.082085 6.669108 11.082722 Z M 2.319163 6.499679 L 2.319246 2.830973 C 2.496122 2.805289 2.677378 2.791708 2.845194 2.793943 C 4.346774 2.789849 4.966311 3.835977 4.969017 4.804185 C 4.970685 5.731701 4.451983 6.499845 3.083912 6.502162 Z M 2.319163 6.499679 " stroke="#ffffff" stroke-width="0.825" stroke-opacity="1" stroke-miterlimit="4"/><path stroke-linecap="butt" transform="matrix(0.662841, -0.145283, 0.145283, 0.662841, 53.665911, 20.326532)" fill="none" stroke-linejoin="miter" d="M 2.25402 10.99812 L 4.4987 11.000981 L 4.500703 10.830517 C 4.104471 10.702418 4.018509 10.341771 4.019745 9.475742 L 4.017928 2.816034 L 4.365711 2.81565 C 5.431551 2.81943 5.979374 3.116299 6.416736 4.078461 L 6.564014 4.05181 L 6.493617 2.59844 L 0.240387 2.600953 L 0.164045 4.051626 L 0.311477 4.078047 C 0.758245 3.115196 1.294363 2.82018 2.361436 2.818337 L 2.738566 2.818492 L 2.73476 9.476969 C 2.733524 10.342997 2.649022 10.70164 2.254791 10.83328 Z M 2.25402 10.99812 " stroke="#ffffff" stroke-width="0.825" stroke-opacity="1" stroke-miterlimit="4"/></svg>